<svg width="200" height="200" viewBox="0 0 200 200" xmlns="http://www.w3.org/2000/svg">
    <!-- Plato -->
    <circle cx="100" cy="100" r="90" fill="white" stroke="grey" stroke-width="4" />

    <!-- Salsa Roja (base) -->
    <circle cx="100" cy="100" r="60" fill="tomato" />

    <!-- Tallarines -->
    <path d="M 70 70 Q 80 90 100 85 T 130 80 Q 110 100 90 120 T 80 140 Q 100 130 120 120 T 140 110"
          fill="none" stroke="#FFD700" stroke-width="4" />
    <path d="M 80 80 Q 90 110 110 115 T 130 110 Q 110 130 100 140 T 90 150 Q 110 140 120 130 T 130 120"
          fill="none" stroke="#FFD700" stroke-width="4" />

    <!-- Garnish (hojas de albahaca) -->
    <ellipse cx="75" cy="90" rx="8" ry="15" fill="green" transform="rotate(-30 75 90)" />
    <ellipse cx="125" cy="90" rx="8" ry="15" fill="green" transform="rotate(30 125 90)" />

    <!-- Queso rallado -->
    <circle cx="110" cy="100" r="2" fill="white" />
    <circle cx="90" cy="120" r="2" fill="white" />
    <circle cx="100" cy="110" r="2" fill="white" />
    <circle cx="120" cy="130" r="2" fill="white" />
</svg>
