<svg width="250" height="250" viewBox="0 0 250 250" xmlns="http://www.w3.org/2000/svg">
    <!-- Plato con borde -->
    <circle cx="125" cy="125" r="110" fill="white" stroke="grey" stroke-width="6" />
    <circle cx="125" cy="125" r="95" fill="#f0f0f0" />

    <!-- Salsa Roja (base) -->
    <circle cx="125" cy="125" r="65" fill="tomato" />

    <!-- Tallarines -->
    <path d="M 75 85 Q 90 110 110 105 T 140 100 Q 120 120 100 140 T 85 150 Q 105 135 135 125 T 150 110"
          fill="none" stroke="#FFD700" stroke-width="4" />
    <path d="M 90 70 Q 100 95 120 90 T 130 85 Q 110 115 90 135 T 75 145 Q 95 125 115 115 T 145 105"
          fill="none" stroke="#FFD700" stroke-width="4" />
    <path d="M 80 100 Q 95 115 115 110 T 130 95 Q 110 120 90 140 T 85 160 Q 100 130 120 115 T 150 100"
          fill="none" stroke="#FFD700" stroke-width="4" />
    <path d="M 105 75 Q 120 90 140 85 T 160 75 Q 140 100 120 130 T 105 150 Q 130 125 150 115 T 160 100"
          fill="none" stroke="#FFD700" stroke-width="4" />

    <!-- Sombras debajo de los tallarines (detalle adicional) -->
    <path d="M 85 80 Q 100 105 125 100 T 140 85 Q 120 105 100 130 T 90 145" fill="none" stroke="#d4a017" stroke-width="3" opacity="0.5"/>
    
    <!-- Garnish (hojas de albahaca) -->
    <ellipse cx="90" cy="110" rx="8" ry="15" fill="green" transform="rotate(-30 90 110)" />
    <ellipse cx="160" cy="120" rx="8" ry="15" fill="green" transform="rotate(30 160 120)" />
    <ellipse cx="110" cy="90" rx="6" ry="12" fill="green" transform="rotate(-45 110 90)" />
    <ellipse cx="140" cy="140" rx="6" ry="12" fill="green" transform="rotate(45 140 140)" />

    <!-- Queso rallado -->
    <circle cx="115" cy="120" r="2" fill="white" />
    <circle cx="130" cy="105" r="2" fill="white" />
    <circle cx="125" cy="130" r="2" fill="white" />
    <circle cx="140" cy="115" r="2" fill="white" />
    <circle cx="110" cy="140" r="2" fill="white" />
    <circle cx="100" cy="115" r="2" fill="white" />
    <circle cx="135" cy="135" r="2" fill="white" />
    <circle cx="150" cy="120" r="2" fill="white" />
</svg>
